<svg width="164" height="37" fill="none" xmlns="http://www.w3.org/2000/svg"><path fill-rule="evenodd" clip-rule="evenodd" d="M14.32 1.4c4.64 0 8.52 1.608 11.64 4.824 3.12 3.216 4.68 7.208 4.68 11.976 0 4.768-1.56 8.76-4.68 11.976-3.12 3.216-7 4.824-11.64 4.824H.88V1.4h13.44zm0 26.208c2.656 0 4.808-.856 6.456-2.568 1.648-1.712 2.472-3.992 2.472-6.84s-.824-5.128-2.472-6.84c-1.648-1.712-3.8-2.568-6.456-2.568H8.56v18.816h5.76zm28.8 0h13.44V35H35.44V1.4h20.88v7.392h-13.2v5.568h12v7.296h-12v5.952zM69.424 35L58.48 1.4h8.4l7.44 24.72L81.76 1.4h8.4L79.216 35h-9.792zM93.52 1.4h7.68V35h-7.68V1.4zm29.952 34.272c-5.024 0-9.192-1.672-12.504-5.016C107.656 27.312 106 23.16 106 18.2c0-4.96 1.656-9.112 4.968-12.456C114.28 2.4 118.448.728 123.472.728c3.008 0 5.792.696 8.352 2.088 2.56 1.392 4.576 3.288 6.048 5.688l-6.624 3.84c-.736-1.312-1.792-2.328-3.168-3.048-1.376-.72-2.912-1.08-4.608-1.08-2.976 0-5.352.912-7.128 2.736-1.776 1.824-2.664 4.24-2.664 7.248s.888 5.424 2.664 7.248c1.776 1.824 4.152 2.736 7.128 2.736 1.696 0 3.24-.368 4.632-1.104 1.392-.736 2.44-1.744 3.144-3.024l6.624 3.84c-1.44 2.4-3.44 4.296-6 5.688-2.56 1.392-5.36 2.088-8.4 2.088zm26.16-8.064h13.44V35h-21.12V1.4h20.88v7.392h-13.2v5.568h12v7.296h-12v5.952z" fill="#000"/><path d="M.88 35h-.5v.5h.5V35zm0-33.6V.9h-.5v.5h.5zm7.68 7.392v-.5h-.5v.5h.5zm0 18.816h-.5v.5h.5v-.5zm34.56 0h-.5v.5h.5v-.5zm13.44 0h.5v-.5h-.5v.5zm0 7.392v.5h.5V35h-.5zm-21.12 0h-.5v.5h.5V35zm0-33.6V.9h-.5v.5h.5zm20.88 0h.5V.9h-.5v.5zm0 7.392v.5h.5v-.5h-.5zm-13.2 0v-.5h-.5v.5h.5zm0 5.568h-.5v.5h.5v-.5zm12 0h.5v-.5h-.5v.5zm0 7.296v.5h.5v-.5h-.5zm-12 0v-.5h-.5v.5h.5zM69.424 35l-.475.155.112.345h.363V35zM58.48 1.4V.9h-.689l.214.655.475-.155zm8.4 0l.479-.144L67.252.9h-.372v.5zm7.44 24.72l-.479.144.479 1.59.479-1.59-.479-.144zM81.76 1.4V.9h-.372l-.107.356.479.144zm8.4 0l.475.155L90.85.9h-.689v.5zM79.216 35v.5h.363l.112-.345-.475-.155zM93.52 1.4V.9h-.5v.5h.5zm7.68 0h.5V.9h-.5v.5zm0 33.6v.5h.5V35h-.5zm-7.68 0h-.5v.5h.5V35zm44.352-26.496l.251.433.443-.257-.268-.437-.426.261zm-6.624 3.84l-.436.245.248.442.439-.254-.251-.433zm0 11.712l.251-.433-.443-.256-.246.448.438.241zm6.624 3.84l.429.257.261-.435-.439-.255-.251.433zm11.76-.288h-.5v.5h.5v-.5zm13.44 0h.5v-.5h-.5v.5zm0 7.392v.5h.5V35h-.5zm-21.12 0h-.5v.5h.5V35zm0-33.6V.9h-.5v.5h.5zm20.88 0h.5V.9h-.5v.5zm0 7.392v.5h.5v-.5h-.5zm-13.2 0v-.5h-.5v.5h.5zm0 5.568h-.5v.5h.5v-.5zm12 0h.5v-.5h-.5v.5zm0 7.296v.5h.5v-.5h-.5zm-12 0v-.5h-.5v.5h.5zM14.32 1.9c4.51 0 8.259 1.557 11.281 4.672l.718-.696C23.1 2.559 19.089.9 14.32.9v1zm11.281 4.672c3.023 3.116 4.539 6.98 4.539 11.628h1c0-4.889-1.604-9.008-4.821-12.324l-.718.696zM30.14 18.2c0 4.647-1.516 8.512-4.539 11.628l.718.696c3.217-3.316 4.821-7.435 4.821-12.324h-1zm-4.539 11.628C22.58 32.943 18.831 34.5 14.32 34.5v1c4.77 0 8.781-1.659 11.999-4.976l-.718-.696zM14.32 34.5H.88v1h13.44v-1zM1.38 35V1.4h-1V35h1zM.88 1.9h13.44v-1H.88v1zm13.44 26.208c2.774 0 5.062-.9 6.816-2.721l-.72-.694c-1.542 1.602-3.558 2.415-6.096 2.415v1zm6.816-2.721c1.755-1.823 2.612-4.237 2.612-7.187h-1c0 2.746-.791 4.892-2.332 6.493l.72.694zm2.612-7.187c0-2.95-.857-5.364-2.612-7.187l-.72.694c1.54 1.6 2.332 3.747 2.332 6.493h1zm-2.612-7.187c-1.754-1.822-4.042-2.721-6.816-2.721v1c2.538 0 4.554.813 6.096 2.415l.72-.694zM14.32 8.292H8.56v1h5.76v-1zm-6.26.5v18.816h1V8.792h-1zm.5 19.316h5.76v-1H8.56v1zm34.56 0h13.44v-1H43.12v1zm12.94-.5V35h1v-7.392h-1zm.5 6.892H35.44v1h21.12v-1zm-20.62.5V1.4h-1V35h1zm-.5-33.1h20.88v-1H35.44v1zm20.38-.5v7.392h1V1.4h-1zm.5 6.892h-13.2v1h13.2v-1zm-13.7.5v5.568h1V8.792h-1zm.5 6.068h12v-1h-12v1zm11.5-.5v7.296h1V14.36h-1zm.5 6.796h-12v1h12v-1zm-12.5.5v5.952h1v-5.952h-1zm27.28 13.19l-10.945-33.6-.95.309 10.944 33.6.95-.31zM58.48 1.9h8.4v-1h-8.4v1zm7.921-.356l7.44 24.72.958-.288-7.44-24.72-.958.288zm8.398 24.72l7.44-24.72-.958-.288-7.44 24.72.958.288zM81.76 1.9h8.4v-1h-8.4v1zm7.925-.655l-10.944 33.6.95.31 10.944-33.6-.95-.31zM79.216 34.5h-9.792v1h9.792v-1zM93.52 1.9h7.68v-1h-7.68v1zm7.18-.5V35h1V1.4h-1zm.5 33.1h-7.68v1h7.68v-1zm-7.18.5V1.4h-1V35h1zm29.452.172c-4.901 0-8.937-1.625-12.149-4.868l-.71.704c3.412 3.445 7.712 5.164 12.859 5.164v-1zm-12.149-4.868c-3.214-3.245-4.823-7.268-4.823-12.104h-1c0 5.084 1.703 9.365 5.113 12.808l.71-.704zM106.5 18.2c0-4.836 1.609-8.86 4.823-12.104l-.71-.704c-3.41 3.443-5.113 7.724-5.113 12.808h1zm4.823-12.104c3.212-3.242 7.248-4.868 12.149-4.868v-1c-5.147 0-9.447 1.718-12.859 5.164l.71.704zm12.149-4.868c2.927 0 5.629.676 8.113 2.027l.478-.878C129.427.944 126.561.228 123.472.228v1zm8.113 2.027c2.486 1.352 4.436 3.188 5.861 5.51l.852-.522c-1.519-2.478-3.601-4.434-6.235-5.866l-.478.878zm6.036 4.816l-6.624 3.84.502.866 6.624-3.84-.502-.866zm-5.937 4.028c-.785-1.399-1.913-2.483-3.372-3.246l-.464.886c1.293.677 2.277 1.625 2.964 2.85l.872-.49zm-3.372-3.246c-1.454-.76-3.071-1.137-4.84-1.137v1c1.623 0 3.078.344 4.376 1.023l.464-.886zm-4.84-1.137c-3.086 0-5.6.95-7.486 2.887l.716.698c1.666-1.711 3.904-2.585 6.77-2.585v-1zm-7.486 2.887c-1.883 1.934-2.806 4.484-2.806 7.597h1c0-2.903.853-5.185 2.522-6.9l-.716-.697zM113.18 18.2c0 3.113.923 5.663 2.806 7.597l.716-.698c-1.669-1.714-2.522-3.996-2.522-6.899h-1zm2.806 7.597c1.886 1.937 4.4 2.887 7.486 2.887v-1c-2.866 0-5.104-.874-6.77-2.585l-.716.698zm7.486 2.887c1.771 0 3.396-.385 4.866-1.162l-.468-.884c-1.314.695-2.777 1.046-4.398 1.046v1zm4.866-1.162c1.471-.778 2.593-1.853 3.348-3.225l-.876-.482c-.653 1.188-1.627 2.129-2.94 2.823l.468.884zm2.659-3.033l6.624 3.84.502-.866-6.624-3.84-.502.866zm6.446 3.15c-1.392 2.32-3.325 4.155-5.81 5.506l.478.878c2.635-1.433 4.702-3.39 6.19-5.87l-.858-.514zm-5.81 5.506c-2.483 1.35-5.201 2.027-8.161 2.027v1c3.12 0 6.002-.715 8.639-2.149l-.478-.878zm17.999-5.037h13.44v-1h-13.44v1zm12.94-.5V35h1v-7.392h-1zm.5 6.892h-21.12v1h21.12v-1zm-20.62.5V1.4h-1V35h1zm-.5-33.1h20.88v-1h-20.88v1zm20.38-.5v7.392h1V1.4h-1zm.5 6.892h-13.2v1h13.2v-1zm-13.7.5v5.568h1V8.792h-1zm.5 6.068h12v-1h-12v1zm11.5-.5v7.296h1V14.36h-1zm.5 6.796h-12v1h12v-1zm-12.5.5v5.952h1v-5.952h-1z" fill="#000"/></svg>