<svg width="164" height="37" viewBox="0 0 164 37" fill="none" xmlns="http://www.w3.org/2000/svg">
    <path fill-rule="evenodd" clip-rule="evenodd" d="M14.32 1.4C18.96 1.4 22.84 3.00798 25.96 6.224C29.08 9.44002 30.64 13.432 30.64 18.2C30.64 22.968 29.08 26.96 25.96 30.176C22.84 33.392 18.96 35 14.32 35H0.880005V1.4H14.32ZM14.32 27.608C16.976 27.608 19.128 26.752 20.776 25.04C22.424 23.328 23.248 21.048 23.248 18.2C23.248 15.352 22.424 13.072 20.776 11.36C19.128 9.64799 16.976 8.792 14.32 8.792H8.56V27.608H14.32ZM43.12 27.608H56.56V35H35.44V1.4H56.32V8.792H43.12V14.36H55.12V21.656H43.12V27.608ZM69.424 35L58.48 1.4H66.88L74.32 26.12L81.76 1.4H90.16L79.216 35H69.424ZM93.52 1.4H101.2V35H93.52V1.4ZM123.472 35.672C118.448 35.672 114.28 34 110.968 30.656C107.656 27.312 106 23.16 106 18.2C106 13.24 107.656 9.08802 110.968 5.744C114.28 2.39998 118.448 0.728001 123.472 0.728001C126.48 0.728001 129.264 1.42399 131.824 2.816C134.384 4.20801 136.4 6.10399 137.872 8.504L131.248 12.344C130.512 11.032 129.456 10.016 128.08 9.296C126.704 8.576 125.168 8.216 123.472 8.216C120.496 8.216 118.12 9.12799 116.344 10.952C114.568 12.776 113.68 15.192 113.68 18.2C113.68 21.208 114.568 23.624 116.344 25.448C118.12 27.272 120.496 28.184 123.472 28.184C125.168 28.184 126.712 27.816 128.104 27.08C129.496 26.344 130.544 25.336 131.248 24.056L137.872 27.896C136.432 30.296 134.432 32.192 131.872 33.584C129.312 34.976 126.512 35.672 123.472 35.672ZM149.632 27.608H163.072V35H141.952V1.4H162.832V8.792H149.632V14.36H161.632V21.656H149.632V27.608Z" fill="black"/>
    <path d="M0.880005 35H0.380005V35.5H0.880005V35ZM0.880005 1.4V0.900001H0.380005V1.4H0.880005ZM8.56 8.792V8.292H8.06V8.792H8.56ZM8.56 27.608H8.06V28.108H8.56V27.608ZM43.12 27.608H42.62V28.108H43.12V27.608ZM56.56 27.608H57.06V27.108H56.56V27.608ZM56.56 35V35.5H57.06V35H56.56ZM35.44 35H34.94V35.5H35.44V35ZM35.44 1.4V0.900001H34.94V1.4H35.44ZM56.32 1.4H56.82V0.900001H56.32V1.4ZM56.32 8.792V9.292H56.82V8.792H56.32ZM43.12 8.792V8.292H42.62V8.792H43.12ZM43.12 14.36H42.62V14.86H43.12V14.36ZM55.12 14.36H55.62V13.86H55.12V14.36ZM55.12 21.656V22.156H55.62V21.656H55.12ZM43.12 21.656V21.156H42.62V21.656H43.12ZM69.424 35L68.9486 35.1548L69.061 35.5H69.424V35ZM58.48 1.4V0.900001H57.7913L58.0046 1.55485L58.48 1.4ZM66.88 1.4L67.3588 1.2559L67.2517 0.900001H66.88V1.4ZM74.32 26.12L73.8412 26.2641L74.32 27.8549L74.7988 26.2641L74.32 26.12ZM81.76 1.4V0.900001H81.3883L81.2812 1.2559L81.76 1.4ZM90.16 1.4L90.6354 1.55485L90.8487 0.900001H90.16V1.4ZM79.216 35V35.5H79.579L79.6914 35.1548L79.216 35ZM93.52 1.4V0.900001H93.02V1.4H93.52ZM101.2 1.4H101.7V0.900001H101.2V1.4ZM101.2 35V35.5H101.7V35H101.2ZM93.52 35H93.02V35.5H93.52V35ZM137.872 8.504L138.123 8.93657L138.566 8.67951L138.298 8.24259L137.872 8.504ZM131.248 12.344L130.812 12.5886L131.06 13.0309L131.499 12.7766L131.248 12.344ZM131.248 24.056L131.499 23.6234L131.056 23.367L130.81 23.815L131.248 24.056ZM137.872 27.896L138.301 28.1532L138.562 27.718L138.123 27.4634L137.872 27.896ZM149.632 27.608H149.132V28.108H149.632V27.608ZM163.072 27.608H163.572V27.108H163.072V27.608ZM163.072 35V35.5H163.572V35H163.072ZM141.952 35H141.452V35.5H141.952V35ZM141.952 1.4V0.900001H141.452V1.4H141.952ZM162.832 1.4H163.332V0.900001H162.832V1.4ZM162.832 8.792V9.292H163.332V8.792H162.832ZM149.632 8.792V8.292H149.132V8.792H149.632ZM149.632 14.36H149.132V14.86H149.632V14.36ZM161.632 14.36H162.132V13.86H161.632V14.36ZM161.632 21.656V22.156H162.132V21.656H161.632ZM149.632 21.656V21.156H149.132V21.656H149.632ZM14.32 1.9C18.8302 1.9 22.579 3.45701 25.6011 6.57216L26.3189 5.87584C23.101 2.55896 19.0899 0.900001 14.32 0.900001V1.9ZM25.6011 6.57216C28.6244 9.68848 30.14 13.5528 30.14 18.2H31.14C31.14 13.3112 29.5356 9.19155 26.3189 5.87584L25.6011 6.57216ZM30.14 18.2C30.14 22.8472 28.6244 26.7115 25.6011 29.8278L26.3189 30.5242C29.5356 27.2084 31.14 23.0888 31.14 18.2H30.14ZM25.6011 29.8278C22.579 32.943 18.8302 34.5 14.32 34.5V35.5C19.0899 35.5 23.101 33.841 26.3189 30.5242L25.6011 29.8278ZM14.32 34.5H0.880005V35.5H14.32V34.5ZM1.38 35V1.4H0.380005V35H1.38ZM0.880005 1.9H14.32V0.900001H0.880005V1.9ZM14.32 28.108C17.0943 28.108 19.3824 27.2087 21.1362 25.3868L20.4158 24.6932C18.8736 26.2953 16.8577 27.108 14.32 27.108V28.108ZM21.1362 25.3868C22.8912 23.5636 23.748 21.15 23.748 18.2H22.748C22.748 20.946 21.9568 23.0924 20.4158 24.6932L21.1362 25.3868ZM23.748 18.2C23.748 15.25 22.8912 12.8364 21.1362 11.0132L20.4158 11.7068C21.9568 13.3076 22.748 15.454 22.748 18.2H23.748ZM21.1362 11.0132C19.3824 9.19132 17.0943 8.292 14.32 8.292V9.292C16.8577 9.292 18.8736 10.1047 20.4158 11.7068L21.1362 11.0132ZM14.32 8.292H8.56V9.292H14.32V8.292ZM8.06 8.792V27.608H9.06V8.792H8.06ZM8.56 28.108H14.32V27.108H8.56V28.108ZM43.12 28.108H56.56V27.108H43.12V28.108ZM56.06 27.608V35H57.06V27.608H56.06ZM56.56 34.5H35.44V35.5H56.56V34.5ZM35.94 35V1.4H34.94V35H35.94ZM35.44 1.9H56.32V0.900001H35.44V1.9ZM55.82 1.4V8.792H56.82V1.4H55.82ZM56.32 8.292H43.12V9.292H56.32V8.292ZM42.62 8.792V14.36H43.62V8.792H42.62ZM43.12 14.86H55.12V13.86H43.12V14.86ZM54.62 14.36V21.656H55.62V14.36H54.62ZM55.12 21.156H43.12V22.156H55.12V21.156ZM42.62 21.656V27.608H43.62V21.656H42.62ZM69.8994 34.8451L58.9554 1.24515L58.0046 1.55485L68.9486 35.1548L69.8994 34.8451ZM58.48 1.9H66.88V0.900001H58.48V1.9ZM66.4012 1.5441L73.8412 26.2641L74.7988 25.9759L67.3588 1.2559L66.4012 1.5441ZM74.7988 26.2641L82.2388 1.5441L81.2812 1.2559L73.8412 25.9759L74.7988 26.2641ZM81.76 1.9H90.16V0.900001H81.76V1.9ZM89.6846 1.24515L78.7406 34.8451L79.6914 35.1548L90.6354 1.55485L89.6846 1.24515ZM79.216 34.5H69.424V35.5H79.216V34.5ZM93.52 1.9H101.2V0.900001H93.52V1.9ZM100.7 1.4V35H101.7V1.4H100.7ZM101.2 34.5H93.52V35.5H101.2V34.5ZM94.02 35V1.4H93.02V35H94.02ZM123.472 35.172C118.571 35.172 114.535 33.5465 111.323 30.3042L110.613 31.0078C114.025 34.4535 118.325 36.172 123.472 36.172V35.172ZM111.323 30.3042C108.109 27.0592 106.5 23.0361 106.5 18.2H105.5C105.5 23.2839 107.203 27.5648 110.613 31.0078L111.323 30.3042ZM106.5 18.2C106.5 13.3639 108.109 9.34079 111.323 6.09585L110.613 5.39215C107.203 8.83525 105.5 13.1161 105.5 18.2H106.5ZM111.323 6.09585C114.535 2.85351 118.571 1.228 123.472 1.228V0.228001C118.325 0.228001 114.025 1.94646 110.613 5.39215L111.323 6.09585ZM123.472 1.228C126.399 1.228 129.101 1.90443 131.585 3.25526L132.063 2.37674C129.427 0.943558 126.561 0.228001 123.472 0.228001V1.228ZM131.585 3.25526C134.071 4.60695 136.021 6.44276 137.446 8.76541L138.298 8.24259C136.779 5.76522 134.697 3.80906 132.063 2.37674L131.585 3.25526ZM137.621 8.07143L130.997 11.9114L131.499 12.7766L138.123 8.93657L137.621 8.07143ZM131.684 12.0994C130.899 10.7 129.771 9.61639 128.312 8.85298L127.848 9.73902C129.141 10.4156 130.125 11.364 130.812 12.5886L131.684 12.0994ZM128.312 8.85298C126.858 8.09218 125.241 7.716 123.472 7.716V8.716C125.095 8.716 126.55 9.05981 127.848 9.73902L128.312 8.85298ZM123.472 7.716C120.386 7.716 117.872 8.66614 115.986 10.6032L116.702 11.3008C118.368 9.58984 120.606 8.716 123.472 8.716V7.716ZM115.986 10.6032C114.103 12.5373 113.18 15.087 113.18 18.2H114.18C114.18 15.2969 115.033 13.0148 116.702 11.3008L115.986 10.6032ZM113.18 18.2C113.18 21.313 114.103 23.8627 115.986 25.7968L116.702 25.0992C115.033 23.3852 114.18 21.1031 114.18 18.2H113.18ZM115.986 25.7968C117.872 27.7339 120.386 28.684 123.472 28.684V27.684C120.606 27.684 118.368 26.8102 116.702 25.0992L115.986 25.7968ZM123.472 28.684C125.243 28.684 126.868 28.299 128.338 27.522L127.87 26.638C126.556 27.333 125.093 27.684 123.472 27.684V28.684ZM128.338 27.522C129.809 26.7441 130.931 25.6692 131.686 24.297L130.81 23.815C130.157 25.0028 129.183 25.9439 127.87 26.638L128.338 27.522ZM130.997 24.4886L137.621 28.3286L138.123 27.4634L131.499 23.6234L130.997 24.4886ZM137.443 27.6388C136.051 29.959 134.118 31.7935 131.633 33.1447L132.111 34.0233C134.746 32.5905 136.813 30.633 138.301 28.1532L137.443 27.6388ZM131.633 33.1447C129.15 34.4951 126.432 35.172 123.472 35.172V36.172C126.592 36.172 129.474 35.4569 132.111 34.0233L131.633 33.1447ZM149.632 28.108H163.072V27.108H149.632V28.108ZM162.572 27.608V35H163.572V27.608H162.572ZM163.072 34.5H141.952V35.5H163.072V34.5ZM142.452 35V1.4H141.452V35H142.452ZM141.952 1.9H162.832V0.900001H141.952V1.9ZM162.332 1.4V8.792H163.332V1.4H162.332ZM162.832 8.292H149.632V9.292H162.832V8.292ZM149.132 8.792V14.36H150.132V8.792H149.132ZM149.632 14.86H161.632V13.86H149.632V14.86ZM161.132 14.36V21.656H162.132V14.36H161.132ZM161.632 21.156H149.632V22.156H161.632V21.156ZM149.132 21.656V27.608H150.132V21.656H149.132Z" fill="black"/>
</svg>
